<svg xmlns="http://www.w3.org/2000/svg" viewBox="0 0 1200 630" role="img" aria-label="Codabind — BIND zone editor with live propagation checks">
  <rect width="1200" height="630" fill="#0f1115"/>
  <rect x="0" y="0" width="1200" height="6" fill="#39ff14" opacity="0.45"/>

  <g transform="translate(130 175) scale(4.4)">
    <path d="M14 4H50Q60 4 60 14V26Q60 30 54 32Q60 34 60 38V50Q60 60 50 60H14Q4 60 4 50V38Q4 34 10 32Q4 30 4 26V14Q4 4 14 4Z" fill="#c8f5d4"/>
    <path d="M16 8H48Q56 8 56 16V26Q56 30 51 32Q56 34 56 38V48Q56 56 48 56H16Q8 56 8 48V38Q8 34 13 32Q8 30 8 26V16Q8 8 16 8Z" fill="#0d4d28"/>
    <path d="M21 33L29 41L44 23" stroke="#39ff14" stroke-width="5" stroke-linecap="round" stroke-linejoin="round" fill="none"/>
  </g>

  <g font-family="-apple-system,BlinkMacSystemFont,'Segoe UI',Roboto,Helvetica,Arial,sans-serif">
    <text x="540" y="285" font-size="118" font-weight="700" fill="#e6e8ec">Codabind</text>
    <text x="540" y="345" font-size="32" font-weight="500" fill="#8a93a3">BIND zone editor with live propagation checks</text>
    <text x="540" y="395" font-size="26" font-weight="400" fill="#8a93a3">Edit · Validate · Resolve · Diff</text>
  </g>

  <g font-family="ui-monospace,SFMono-Regular,Menlo,Consolas,monospace">
    <text x="140" y="565" font-size="24" font-weight="500" fill="#39ff14">codabind.com</text>
    <text x="1060" y="565" font-size="22" fill="#8a93a3" text-anchor="end">by Codarn AB</text>
  </g>
</svg>
